<mxfile host="app.diagrams.net" modified="2022-04-12T20:13:23.609Z" agent="5.0 (Windows NT 10.0; Win64; x64) AppleWebKit/537.36 (KHTML, like Gecko) Chrome/100.0.4896.75 Safari/537.36" etag="6Atu3oXqUTwCsMnfLEaE" version="17.4.2" type="github">
  <diagram name="Page-1" id="13e1069c-82ec-6db2-03f1-153e76fe0fe0">
    <mxGraphModel dx="2830" dy="927" grid="1" gridSize="10" guides="1" tooltips="1" connect="1" arrows="1" fold="1" page="1" pageScale="1" pageWidth="1100" pageHeight="850" background="none" math="0" shadow="0">
      <root>
        <mxCell id="0" />
        <mxCell id="1" parent="0" />
        <mxCell id="7baba1c4bc27f4b0-2" value="&lt;font style=&quot;font-size: 18px&quot;&gt;:user&lt;/font&gt;" style="shape=umlLifeline;perimeter=lifelinePerimeter;whiteSpace=wrap;html=1;container=1;collapsible=0;recursiveResize=0;outlineConnect=0;rounded=1;shadow=0;comic=0;labelBackgroundColor=none;strokeWidth=1;fontFamily=Verdana;fontSize=12;align=center;" parent="1" vertex="1">
          <mxGeometry x="160" y="80" width="100" height="1120" as="geometry" />
        </mxCell>
        <mxCell id="q0aHQsbhXJrefQg0nyR3-52" value="" style="html=1;points=[];perimeter=orthogonalPerimeter;rounded=0;shadow=0;comic=0;labelBackgroundColor=none;strokeWidth=1;fontFamily=Verdana;fontSize=12;align=center;" vertex="1" parent="7baba1c4bc27f4b0-2">
          <mxGeometry x="45" y="740" width="10" height="50" as="geometry" />
        </mxCell>
        <mxCell id="q0aHQsbhXJrefQg0nyR3-66" value="" style="html=1;points=[];perimeter=orthogonalPerimeter;rounded=0;shadow=0;comic=0;labelBackgroundColor=none;strokeWidth=1;fontFamily=Verdana;fontSize=12;align=center;" vertex="1" parent="7baba1c4bc27f4b0-2">
          <mxGeometry x="45" y="910" width="10" height="50" as="geometry" />
        </mxCell>
        <mxCell id="7baba1c4bc27f4b0-3" value="&lt;font style=&quot;font-size: 18px&quot;&gt;:/&lt;/font&gt;" style="shape=umlLifeline;perimeter=lifelinePerimeter;whiteSpace=wrap;html=1;container=1;collapsible=0;recursiveResize=0;outlineConnect=0;rounded=1;shadow=0;comic=0;labelBackgroundColor=none;strokeWidth=1;fontFamily=Verdana;fontSize=12;align=center;" parent="1" vertex="1">
          <mxGeometry x="400" y="80" width="100" height="1120" as="geometry" />
        </mxCell>
        <mxCell id="7baba1c4bc27f4b0-9" value="" style="html=1;points=[];perimeter=orthogonalPerimeter;rounded=0;shadow=0;comic=0;labelBackgroundColor=none;strokeWidth=1;fontFamily=Verdana;fontSize=12;align=center;" parent="7baba1c4bc27f4b0-3" vertex="1">
          <mxGeometry x="45" y="130" width="10" height="80" as="geometry" />
        </mxCell>
        <mxCell id="7baba1c4bc27f4b0-4" value="&lt;font style=&quot;font-size: 18px&quot;&gt;:anime&lt;/font&gt;" style="shape=umlLifeline;perimeter=lifelinePerimeter;whiteSpace=wrap;html=1;container=1;collapsible=0;recursiveResize=0;outlineConnect=0;rounded=1;shadow=0;comic=0;labelBackgroundColor=none;strokeWidth=1;fontFamily=Verdana;fontSize=12;align=center;" parent="1" vertex="1">
          <mxGeometry x="540" y="80" width="100" height="1140" as="geometry" />
        </mxCell>
        <mxCell id="q0aHQsbhXJrefQg0nyR3-11" value="" style="html=1;points=[];perimeter=orthogonalPerimeter;rounded=0;shadow=0;comic=0;labelBackgroundColor=none;strokeWidth=1;fontFamily=Verdana;fontSize=12;align=center;" vertex="1" parent="7baba1c4bc27f4b0-4">
          <mxGeometry x="45" y="560" width="10" height="60" as="geometry" />
        </mxCell>
        <mxCell id="q0aHQsbhXJrefQg0nyR3-88" value="" style="shape=umlDestroy;whiteSpace=wrap;html=1;strokeWidth=3;fontSize=14;" vertex="1" parent="7baba1c4bc27f4b0-4">
          <mxGeometry x="35" y="1110" width="30" height="30" as="geometry" />
        </mxCell>
        <mxCell id="7baba1c4bc27f4b0-5" value="&lt;font style=&quot;font-size: 18px&quot;&gt;:animePage&lt;/font&gt;" style="shape=umlLifeline;perimeter=lifelinePerimeter;whiteSpace=wrap;html=1;container=1;collapsible=0;recursiveResize=0;outlineConnect=0;rounded=1;shadow=0;comic=0;labelBackgroundColor=none;strokeWidth=1;fontFamily=Verdana;fontSize=12;align=center;" parent="1" vertex="1">
          <mxGeometry x="680" y="80" width="160" height="1130" as="geometry" />
        </mxCell>
        <mxCell id="q0aHQsbhXJrefQg0nyR3-26" value="" style="html=1;points=[];perimeter=orthogonalPerimeter;rounded=0;shadow=0;comic=0;labelBackgroundColor=none;strokeWidth=1;fontFamily=Verdana;fontSize=12;align=center;" vertex="1" parent="7baba1c4bc27f4b0-5">
          <mxGeometry x="75" y="330" width="10" height="50" as="geometry" />
        </mxCell>
        <mxCell id="q0aHQsbhXJrefQg0nyR3-64" value="" style="html=1;points=[];perimeter=orthogonalPerimeter;rounded=0;shadow=0;comic=0;labelBackgroundColor=none;strokeWidth=1;fontFamily=Verdana;fontSize=12;align=center;" vertex="1" parent="7baba1c4bc27f4b0-5">
          <mxGeometry x="75" y="840" width="10" height="70" as="geometry" />
        </mxCell>
        <mxCell id="q0aHQsbhXJrefQg0nyR3-77" value="&lt;font style=&quot;font-size: 14px&quot;&gt;leave_comm()&lt;/font&gt;" style="html=1;verticalAlign=bottom;endArrow=block;labelBackgroundColor=none;fontFamily=Verdana;fontSize=12;elbow=vertical;edgeStyle=orthogonalEdgeStyle;curved=1;" edge="1" parent="7baba1c4bc27f4b0-5" source="q0aHQsbhXJrefQg0nyR3-62">
          <mxGeometry x="-0.2426" y="37" relative="1" as="geometry">
            <mxPoint x="90.99999999999955" y="721.5300000000002" as="sourcePoint" />
            <mxPoint x="85" y="739.53" as="targetPoint" />
            <Array as="points">
              <mxPoint x="145" y="701" />
              <mxPoint x="145" y="739" />
            </Array>
            <mxPoint x="-2" y="-11" as="offset" />
          </mxGeometry>
        </mxCell>
        <mxCell id="q0aHQsbhXJrefQg0nyR3-62" value="" style="html=1;points=[];perimeter=orthogonalPerimeter;rounded=0;shadow=0;comic=0;labelBackgroundColor=none;strokeWidth=1;fontFamily=Verdana;fontSize=12;align=center;" vertex="1" parent="7baba1c4bc27f4b0-5">
          <mxGeometry x="75" y="620" width="10" height="120" as="geometry" />
        </mxCell>
        <mxCell id="q0aHQsbhXJrefQg0nyR3-82" value="&lt;font style=&quot;font-size: 14px&quot;&gt;add_to_mylist()&lt;/font&gt;" style="html=1;verticalAlign=bottom;endArrow=block;labelBackgroundColor=none;fontFamily=Verdana;fontSize=12;elbow=vertical;edgeStyle=orthogonalEdgeStyle;curved=1;startArrow=none;" edge="1" parent="7baba1c4bc27f4b0-5" source="q0aHQsbhXJrefQg0nyR3-62">
          <mxGeometry x="-0.2446" y="25" relative="1" as="geometry">
            <mxPoint x="90.99999999999955" y="620" as="sourcePoint" />
            <mxPoint x="85" y="670.94" as="targetPoint" />
            <Array as="points">
              <mxPoint x="145" y="632" />
              <mxPoint x="145" y="671" />
            </Array>
            <mxPoint as="offset" />
          </mxGeometry>
        </mxCell>
        <mxCell id="q0aHQsbhXJrefQg0nyR3-89" value="" style="shape=umlDestroy;whiteSpace=wrap;html=1;strokeWidth=3;fontSize=14;" vertex="1" parent="7baba1c4bc27f4b0-5">
          <mxGeometry x="65" y="1110" width="30" height="30" as="geometry" />
        </mxCell>
        <mxCell id="7baba1c4bc27f4b0-6" value="&lt;font style=&quot;font-size: 18px&quot;&gt;:search&lt;/font&gt;" style="shape=umlLifeline;perimeter=lifelinePerimeter;whiteSpace=wrap;html=1;container=1;collapsible=0;recursiveResize=0;outlineConnect=0;rounded=1;shadow=0;comic=0;labelBackgroundColor=none;strokeWidth=1;fontFamily=Verdana;fontSize=12;align=center;" parent="1" vertex="1">
          <mxGeometry x="880" y="80" width="100" height="1140" as="geometry" />
        </mxCell>
        <mxCell id="q0aHQsbhXJrefQg0nyR3-22" value="" style="html=1;points=[];perimeter=orthogonalPerimeter;rounded=0;shadow=0;comic=0;labelBackgroundColor=none;strokeWidth=1;fontFamily=Verdana;fontSize=12;align=center;" vertex="1" parent="7baba1c4bc27f4b0-6">
          <mxGeometry x="45" y="210" width="10" height="50" as="geometry" />
        </mxCell>
        <mxCell id="q0aHQsbhXJrefQg0nyR3-92" value="" style="shape=umlDestroy;whiteSpace=wrap;html=1;strokeWidth=3;fontSize=14;" vertex="1" parent="7baba1c4bc27f4b0-6">
          <mxGeometry x="35" y="1110" width="30" height="30" as="geometry" />
        </mxCell>
        <mxCell id="7baba1c4bc27f4b0-7" value="&lt;font style=&quot;font-size: 14px&quot;&gt;:searchPage&lt;/font&gt;" style="shape=umlLifeline;perimeter=lifelinePerimeter;whiteSpace=wrap;html=1;container=1;collapsible=0;recursiveResize=0;outlineConnect=0;rounded=1;shadow=0;comic=0;labelBackgroundColor=none;strokeWidth=1;fontFamily=Verdana;fontSize=12;align=center;" parent="1" vertex="1">
          <mxGeometry x="1030" y="80" width="100" height="1130" as="geometry" />
        </mxCell>
        <mxCell id="7baba1c4bc27f4b0-25" value="" style="html=1;points=[];perimeter=orthogonalPerimeter;rounded=0;shadow=0;comic=0;labelBackgroundColor=none;strokeColor=#000000;strokeWidth=1;fillColor=#FFFFFF;fontFamily=Verdana;fontSize=12;fontColor=#000000;align=center;" parent="7baba1c4bc27f4b0-7" vertex="1">
          <mxGeometry x="45" y="260" width="10" height="70" as="geometry" />
        </mxCell>
        <mxCell id="7baba1c4bc27f4b0-8" value="&lt;font style=&quot;font-size: 18px&quot;&gt;:profile&lt;/font&gt;" style="shape=umlLifeline;perimeter=lifelinePerimeter;whiteSpace=wrap;html=1;container=1;collapsible=0;recursiveResize=0;outlineConnect=0;rounded=1;shadow=0;comic=0;labelBackgroundColor=none;strokeWidth=1;fontFamily=Verdana;fontSize=12;align=center;" parent="1" vertex="1">
          <mxGeometry x="20" y="80" width="100" height="1120" as="geometry" />
        </mxCell>
        <mxCell id="q0aHQsbhXJrefQg0nyR3-44" value="" style="html=1;points=[];perimeter=orthogonalPerimeter;rounded=0;shadow=0;comic=0;labelBackgroundColor=none;strokeWidth=1;fontFamily=Verdana;fontSize=12;align=center;" vertex="1" parent="7baba1c4bc27f4b0-8">
          <mxGeometry x="45" y="520" width="10" height="40" as="geometry" />
        </mxCell>
        <mxCell id="q0aHQsbhXJrefQg0nyR3-1" value="SiteVisitor" style="shape=umlActor;verticalLabelPosition=bottom;verticalAlign=top;html=1;outlineConnect=0;" vertex="1" parent="1">
          <mxGeometry x="-100" y="130" width="30" height="60" as="geometry" />
        </mxCell>
        <mxCell id="q0aHQsbhXJrefQg0nyR3-12" value="&lt;font style=&quot;font-size: 18px&quot;&gt;Get page&lt;/font&gt;" style="html=1;verticalAlign=bottom;endArrow=block;labelBackgroundColor=none;fontFamily=Verdana;fontSize=12;edgeStyle=elbowEdgeStyle;elbow=vertical;" edge="1" parent="1" source="q0aHQsbhXJrefQg0nyR3-1" target="7baba1c4bc27f4b0-3">
          <mxGeometry x="-0.1239" relative="1" as="geometry">
            <mxPoint x="180" y="180" as="sourcePoint" />
            <mxPoint x="310" y="180" as="targetPoint" />
            <Array as="points">
              <mxPoint x="300" y="210" />
            </Array>
            <mxPoint as="offset" />
          </mxGeometry>
        </mxCell>
        <mxCell id="q0aHQsbhXJrefQg0nyR3-25" value="&lt;font style=&quot;font-size: 18px&quot;&gt;get_page()&lt;/font&gt;" style="html=1;verticalAlign=bottom;endArrow=block;labelBackgroundColor=none;fontFamily=Verdana;fontSize=12;edgeStyle=elbowEdgeStyle;elbow=vertical;" edge="1" parent="1" source="7baba1c4bc27f4b0-7" target="7baba1c4bc27f4b0-5">
          <mxGeometry x="0.0036" relative="1" as="geometry">
            <mxPoint x="860" y="360" as="sourcePoint" />
            <mxPoint x="800" y="360" as="targetPoint" />
            <mxPoint as="offset" />
            <Array as="points">
              <mxPoint x="980" y="410" />
              <mxPoint x="870" y="360" />
            </Array>
          </mxGeometry>
        </mxCell>
        <mxCell id="q0aHQsbhXJrefQg0nyR3-29" value="&lt;font style=&quot;font-size: 18px&quot;&gt;:person&lt;/font&gt;" style="shape=umlLifeline;perimeter=lifelinePerimeter;whiteSpace=wrap;html=1;container=1;collapsible=0;recursiveResize=0;outlineConnect=0;rounded=1;shadow=0;comic=0;labelBackgroundColor=none;strokeWidth=1;fontFamily=Verdana;fontSize=12;align=center;" vertex="1" parent="1">
          <mxGeometry x="1160" y="80" width="100" height="1120" as="geometry" />
        </mxCell>
        <mxCell id="q0aHQsbhXJrefQg0nyR3-32" value="" style="html=1;points=[];perimeter=orthogonalPerimeter;rounded=0;shadow=0;comic=0;labelBackgroundColor=none;strokeColor=#000000;strokeWidth=1;fillColor=#FFFFFF;fontFamily=Verdana;fontSize=12;fontColor=#000000;align=center;" vertex="1" parent="q0aHQsbhXJrefQg0nyR3-29">
          <mxGeometry x="45" y="380" width="10" height="50" as="geometry" />
        </mxCell>
        <mxCell id="q0aHQsbhXJrefQg0nyR3-33" value="&lt;font style=&quot;font-size: 18px&quot;&gt;get_page()&lt;/font&gt;" style="html=1;verticalAlign=bottom;endArrow=block;labelBackgroundColor=none;fontFamily=Verdana;fontSize=12;edgeStyle=elbowEdgeStyle;elbow=vertical;" edge="1" parent="1" source="7baba1c4bc27f4b0-5" target="q0aHQsbhXJrefQg0nyR3-29">
          <mxGeometry x="0.0036" relative="1" as="geometry">
            <mxPoint x="1010.5" y="460" as="sourcePoint" />
            <mxPoint x="1134" y="460" as="targetPoint" />
            <mxPoint as="offset" />
            <Array as="points">
              <mxPoint x="980" y="460" />
              <mxPoint x="880" y="410" />
              <mxPoint x="1050" y="460" />
            </Array>
          </mxGeometry>
        </mxCell>
        <mxCell id="q0aHQsbhXJrefQg0nyR3-36" value="&lt;span style=&quot;font-size: 18px&quot;&gt;:Log in&lt;/span&gt;" style="shape=umlLifeline;perimeter=lifelinePerimeter;whiteSpace=wrap;html=1;container=1;collapsible=0;recursiveResize=0;outlineConnect=0;rounded=1;shadow=0;comic=0;labelBackgroundColor=none;strokeWidth=1;fontFamily=Verdana;fontSize=12;align=center;" vertex="1" parent="1">
          <mxGeometry x="1290" y="80" width="100" height="1120" as="geometry" />
        </mxCell>
        <mxCell id="q0aHQsbhXJrefQg0nyR3-37" value="" style="html=1;points=[];perimeter=orthogonalPerimeter;rounded=0;shadow=0;comic=0;labelBackgroundColor=none;strokeColor=#000000;strokeWidth=1;fillColor=#FFFFFF;fontFamily=Verdana;fontSize=12;fontColor=#000000;align=center;" vertex="1" parent="q0aHQsbhXJrefQg0nyR3-36">
          <mxGeometry x="45" y="430" width="10" height="40" as="geometry" />
        </mxCell>
        <mxCell id="q0aHQsbhXJrefQg0nyR3-39" value="&lt;font style=&quot;font-size: 18px&quot;&gt;:Sign in&lt;/font&gt;" style="shape=umlLifeline;perimeter=lifelinePerimeter;whiteSpace=wrap;html=1;container=1;collapsible=0;recursiveResize=0;outlineConnect=0;rounded=1;shadow=0;comic=0;labelBackgroundColor=none;strokeWidth=1;fontFamily=Verdana;fontSize=12;align=center;" vertex="1" parent="1">
          <mxGeometry x="1430" y="80" width="100" height="1120" as="geometry" />
        </mxCell>
        <mxCell id="q0aHQsbhXJrefQg0nyR3-40" value="" style="html=1;points=[];perimeter=orthogonalPerimeter;rounded=0;shadow=0;comic=0;labelBackgroundColor=none;strokeColor=#000000;strokeWidth=1;fillColor=#FFFFFF;fontFamily=Verdana;fontSize=12;fontColor=#000000;align=center;" vertex="1" parent="q0aHQsbhXJrefQg0nyR3-39">
          <mxGeometry x="45" y="470" width="10" height="50" as="geometry" />
        </mxCell>
        <mxCell id="q0aHQsbhXJrefQg0nyR3-42" value="&lt;font style=&quot;font-size: 14px&quot;&gt;get_page()&lt;/font&gt;" style="html=1;verticalAlign=bottom;endArrow=block;labelBackgroundColor=none;fontFamily=Verdana;fontSize=12;edgeStyle=elbowEdgeStyle;elbow=vertical;" edge="1" parent="q0aHQsbhXJrefQg0nyR3-39" target="q0aHQsbhXJrefQg0nyR3-39">
          <mxGeometry x="0.0036" relative="1" as="geometry">
            <mxPoint x="-95" y="470" as="sourcePoint" />
            <mxPoint x="63.999999999999545" y="470" as="targetPoint" />
            <mxPoint as="offset" />
            <Array as="points" />
          </mxGeometry>
        </mxCell>
        <mxCell id="q0aHQsbhXJrefQg0nyR3-41" value="&lt;font style=&quot;font-size: 14px&quot;&gt;get_page()&lt;/font&gt;" style="html=1;verticalAlign=bottom;endArrow=block;labelBackgroundColor=none;fontFamily=Verdana;fontSize=12;edgeStyle=elbowEdgeStyle;elbow=vertical;" edge="1" parent="1" source="q0aHQsbhXJrefQg0nyR3-29" target="q0aHQsbhXJrefQg0nyR3-36">
          <mxGeometry x="0.0036" relative="1" as="geometry">
            <mxPoint x="1270" y="510" as="sourcePoint" />
            <mxPoint x="1289.4999999999995" y="510" as="targetPoint" />
            <mxPoint as="offset" />
            <Array as="points">
              <mxPoint x="1280" y="510" />
              <mxPoint x="1390" y="510" />
              <mxPoint x="1340" y="440" />
              <mxPoint x="1370" y="510" />
              <mxPoint x="1270" y="460" />
              <mxPoint x="1150" y="510" />
            </Array>
          </mxGeometry>
        </mxCell>
        <mxCell id="q0aHQsbhXJrefQg0nyR3-43" value="&lt;font style=&quot;font-size: 18px&quot;&gt;return&lt;/font&gt;" style="html=1;verticalAlign=bottom;endArrow=open;dashed=1;endSize=8;labelBackgroundColor=none;fontFamily=Verdana;fontSize=12;edgeStyle=elbowEdgeStyle;elbow=vertical;" edge="1" parent="1" source="q0aHQsbhXJrefQg0nyR3-39" target="7baba1c4bc27f4b0-8">
          <mxGeometry relative="1" as="geometry">
            <mxPoint x="1388.9299999999996" y="650" as="targetPoint" />
            <Array as="points">
              <mxPoint x="1400" y="600" />
              <mxPoint x="1420" y="590" />
              <mxPoint x="1179.43" y="650" />
              <mxPoint x="1109.43" y="680" />
              <mxPoint x="1119.43" y="650" />
              <mxPoint x="1239.43" y="650" />
            </Array>
            <mxPoint x="1110.003529411765" y="650" as="sourcePoint" />
          </mxGeometry>
        </mxCell>
        <mxCell id="q0aHQsbhXJrefQg0nyR3-45" value="&lt;font style=&quot;font-size: 18px&quot;&gt;get_page()&lt;/font&gt;" style="html=1;verticalAlign=bottom;endArrow=block;labelBackgroundColor=none;fontFamily=Verdana;fontSize=12;edgeStyle=elbowEdgeStyle;elbow=vertical;" edge="1" parent="1" source="7baba1c4bc27f4b0-3" target="7baba1c4bc27f4b0-6">
          <mxGeometry x="0.3017" relative="1" as="geometry">
            <mxPoint x="520" y="320" as="sourcePoint" />
            <mxPoint x="759.4999999999995" y="240" as="targetPoint" />
            <mxPoint as="offset" />
            <Array as="points">
              <mxPoint x="810" y="290" />
              <mxPoint x="930" y="290" />
              <mxPoint x="580" y="240" />
            </Array>
          </mxGeometry>
        </mxCell>
        <mxCell id="q0aHQsbhXJrefQg0nyR3-46" value="&lt;font style=&quot;font-size: 18px&quot;&gt;get_page()&lt;/font&gt;" style="html=1;verticalAlign=bottom;endArrow=block;labelBackgroundColor=none;fontFamily=Verdana;fontSize=12;edgeStyle=elbowEdgeStyle;elbow=vertical;" edge="1" parent="1" source="7baba1c4bc27f4b0-8" target="7baba1c4bc27f4b0-4">
          <mxGeometry x="0.0036" relative="1" as="geometry">
            <mxPoint x="445" y="670" as="sourcePoint" />
            <mxPoint x="584.5" y="670" as="targetPoint" />
            <mxPoint as="offset" />
            <Array as="points">
              <mxPoint x="150" y="640" />
              <mxPoint x="455" y="670" />
            </Array>
          </mxGeometry>
        </mxCell>
        <mxCell id="q0aHQsbhXJrefQg0nyR3-51" value="&lt;font style=&quot;font-size: 18px&quot;&gt;get_page()&lt;/font&gt;" style="html=1;verticalAlign=bottom;endArrow=block;labelBackgroundColor=none;fontFamily=Verdana;fontSize=12;edgeStyle=elbowEdgeStyle;elbow=vertical;" edge="1" parent="1" source="7baba1c4bc27f4b0-5" target="7baba1c4bc27f4b0-2">
          <mxGeometry x="0.0036" relative="1" as="geometry">
            <mxPoint x="560" y="900" as="sourcePoint" />
            <mxPoint x="699.5" y="900" as="targetPoint" />
            <mxPoint as="offset" />
            <Array as="points">
              <mxPoint x="540" y="820" />
              <mxPoint x="740" y="820" />
              <mxPoint x="580" y="850" />
              <mxPoint x="700" y="840" />
              <mxPoint x="630" y="870" />
              <mxPoint x="540" y="900" />
              <mxPoint x="570" y="900" />
            </Array>
          </mxGeometry>
        </mxCell>
        <mxCell id="q0aHQsbhXJrefQg0nyR3-53" value="&lt;font style=&quot;font-size: 18px&quot;&gt;:mylist&lt;/font&gt;" style="shape=umlLifeline;perimeter=lifelinePerimeter;whiteSpace=wrap;html=1;container=1;collapsible=0;recursiveResize=0;outlineConnect=0;rounded=1;shadow=0;comic=0;labelBackgroundColor=none;strokeWidth=1;fontFamily=Verdana;fontSize=12;align=center;" vertex="1" parent="1">
          <mxGeometry x="280" y="80" width="100" height="1120" as="geometry" />
        </mxCell>
        <mxCell id="q0aHQsbhXJrefQg0nyR3-54" value="" style="html=1;points=[];perimeter=orthogonalPerimeter;rounded=0;shadow=0;comic=0;labelBackgroundColor=none;strokeWidth=1;fontFamily=Verdana;fontSize=12;align=center;" vertex="1" parent="q0aHQsbhXJrefQg0nyR3-53">
          <mxGeometry x="45" y="790" width="10" height="50" as="geometry" />
        </mxCell>
        <mxCell id="q0aHQsbhXJrefQg0nyR3-68" value="" style="html=1;points=[];perimeter=orthogonalPerimeter;rounded=0;shadow=0;comic=0;labelBackgroundColor=none;strokeWidth=1;fontFamily=Verdana;fontSize=12;align=center;" vertex="1" parent="q0aHQsbhXJrefQg0nyR3-53">
          <mxGeometry x="45" y="960" width="10" height="50" as="geometry" />
        </mxCell>
        <mxCell id="q0aHQsbhXJrefQg0nyR3-57" value="&lt;font style=&quot;font-size: 14px&quot;&gt;get_page()&lt;/font&gt;" style="html=1;verticalAlign=bottom;endArrow=block;labelBackgroundColor=none;fontFamily=Verdana;fontSize=12;edgeStyle=elbowEdgeStyle;elbow=vertical;" edge="1" parent="1" source="7baba1c4bc27f4b0-2" target="q0aHQsbhXJrefQg0nyR3-53">
          <mxGeometry x="0.0036" relative="1" as="geometry">
            <mxPoint x="100.00352941176487" y="849" as="sourcePoint" />
            <mxPoint x="620.1799999999995" y="849" as="targetPoint" />
            <mxPoint as="offset" />
            <Array as="points">
              <mxPoint x="270" y="870" />
              <mxPoint x="270" y="900" />
              <mxPoint x="270" y="920" />
              <mxPoint x="290" y="790" />
              <mxPoint x="280" y="920" />
            </Array>
          </mxGeometry>
        </mxCell>
        <mxCell id="q0aHQsbhXJrefQg0nyR3-24" value="&lt;font style=&quot;font-size: 14px&quot;&gt;get_page()&lt;/font&gt;" style="html=1;verticalAlign=bottom;endArrow=block;labelBackgroundColor=none;fontFamily=Verdana;fontSize=12;edgeStyle=elbowEdgeStyle;elbow=vertical;" edge="1" parent="1" source="7baba1c4bc27f4b0-6" target="7baba1c4bc27f4b0-7">
          <mxGeometry x="0.0036" relative="1" as="geometry">
            <mxPoint x="1016.44" y="290" as="sourcePoint" />
            <mxPoint x="1130.44" y="290" as="targetPoint" />
            <mxPoint as="offset" />
            <Array as="points">
              <mxPoint x="990" y="340" />
              <mxPoint x="1090" y="340" />
              <mxPoint x="1120.44" y="340" />
              <mxPoint x="1015.94" y="290" />
            </Array>
          </mxGeometry>
        </mxCell>
        <mxCell id="q0aHQsbhXJrefQg0nyR3-65" value="&lt;font style=&quot;font-size: 18px&quot;&gt;get_page()&lt;/font&gt;" style="html=1;verticalAlign=bottom;endArrow=block;labelBackgroundColor=none;fontFamily=Verdana;fontSize=12;edgeStyle=elbowEdgeStyle;elbow=vertical;" edge="1" parent="1" source="7baba1c4bc27f4b0-5" target="7baba1c4bc27f4b0-2">
          <mxGeometry x="0.0036" relative="1" as="geometry">
            <mxPoint x="344.82352941176487" y="980" as="sourcePoint" />
            <mxPoint x="769.4999999999995" y="980" as="targetPoint" />
            <mxPoint as="offset" />
            <Array as="points">
              <mxPoint x="660" y="990" />
              <mxPoint x="620" y="1020" />
              <mxPoint x="560" y="1040" />
              <mxPoint x="240" y="1070" />
              <mxPoint x="405.5" y="980" />
              <mxPoint x="425.5" y="850" />
              <mxPoint x="415.5" y="980" />
            </Array>
          </mxGeometry>
        </mxCell>
        <mxCell id="q0aHQsbhXJrefQg0nyR3-67" value="&lt;font style=&quot;font-size: 14px&quot;&gt;get_page()&lt;/font&gt;" style="html=1;verticalAlign=bottom;endArrow=block;labelBackgroundColor=none;fontFamily=Verdana;fontSize=12;edgeStyle=elbowEdgeStyle;elbow=vertical;" edge="1" parent="1" source="7baba1c4bc27f4b0-2" target="q0aHQsbhXJrefQg0nyR3-53">
          <mxGeometry x="0.0036" relative="1" as="geometry">
            <mxPoint x="320.0035294117649" y="1120" as="sourcePoint" />
            <mxPoint x="440.17999999999955" y="1120" as="targetPoint" />
            <mxPoint as="offset" />
            <Array as="points">
              <mxPoint x="270" y="1040" />
              <mxPoint x="270" y="1070" />
              <mxPoint x="270" y="1090" />
              <mxPoint x="290" y="1090" />
              <mxPoint x="270" y="1120" />
              <mxPoint x="280" y="1100" />
              <mxPoint x="280" y="1080" />
              <mxPoint x="330" y="1140" />
              <mxPoint x="380.68" y="1120" />
              <mxPoint x="400.68" y="990" />
              <mxPoint x="390.68" y="1120" />
            </Array>
          </mxGeometry>
        </mxCell>
        <mxCell id="q0aHQsbhXJrefQg0nyR3-69" value="&lt;font style=&quot;font-size: 18px&quot;&gt;Return page&lt;/font&gt;" style="html=1;verticalAlign=bottom;endArrow=block;labelBackgroundColor=none;fontFamily=Verdana;fontSize=12;edgeStyle=elbowEdgeStyle;elbow=vertical;" edge="1" parent="1" source="q0aHQsbhXJrefQg0nyR3-53" target="q0aHQsbhXJrefQg0nyR3-70">
          <mxGeometry x="-0.1239" relative="1" as="geometry">
            <mxPoint x="-110" y="1320" as="sourcePoint" />
            <mxPoint x="-40" y="1190" as="targetPoint" />
            <Array as="points">
              <mxPoint x="260" y="1090" />
              <mxPoint x="290" y="1120" />
              <mxPoint x="290" y="1130" />
              <mxPoint x="50" y="1140" />
              <mxPoint x="-110" y="1140" />
              <mxPoint x="275" y="1340" />
            </Array>
            <mxPoint as="offset" />
          </mxGeometry>
        </mxCell>
        <mxCell id="q0aHQsbhXJrefQg0nyR3-70" value="SiteVisitor" style="shape=umlActor;verticalLabelPosition=bottom;verticalAlign=top;html=1;outlineConnect=0;" vertex="1" parent="1">
          <mxGeometry x="-100" y="1010" width="30" height="60" as="geometry" />
        </mxCell>
        <mxCell id="q0aHQsbhXJrefQg0nyR3-58" value="&lt;font style=&quot;font-size: 18px&quot;&gt;get_page()&lt;/font&gt;" style="html=1;verticalAlign=bottom;endArrow=block;labelBackgroundColor=none;fontFamily=Verdana;fontSize=12;edgeStyle=elbowEdgeStyle;elbow=vertical;" edge="1" parent="1" source="q0aHQsbhXJrefQg0nyR3-53" target="7baba1c4bc27f4b0-5">
          <mxGeometry x="0.0036" relative="1" as="geometry">
            <mxPoint x="334.82352941176487" y="970" as="sourcePoint" />
            <mxPoint x="454.99999999999955" y="970" as="targetPoint" />
            <mxPoint as="offset" />
            <Array as="points">
              <mxPoint x="410" y="920" />
              <mxPoint x="410" y="950" />
              <mxPoint x="415.5" y="840" />
              <mxPoint x="405.5" y="970" />
            </Array>
          </mxGeometry>
        </mxCell>
        <mxCell id="q0aHQsbhXJrefQg0nyR3-21" value="&lt;font style=&quot;font-size: 14px&quot;&gt;add_filters()&lt;/font&gt;" style="html=1;verticalAlign=bottom;endArrow=block;labelBackgroundColor=none;fontFamily=Verdana;fontSize=12;elbow=vertical;edgeStyle=orthogonalEdgeStyle;curved=1;exitX=1.1;exitY=0.15;exitPerimeter=0;exitDx=0;exitDy=0;" edge="1" parent="1">
          <mxGeometry x="-0.1379" relative="1" as="geometry">
            <mxPoint x="596" y="661" as="sourcePoint" />
            <mxPoint x="590" y="679" as="targetPoint" />
            <Array as="points">
              <mxPoint x="596" y="640" />
              <mxPoint x="650" y="640" />
              <mxPoint x="650" y="679" />
            </Array>
            <mxPoint as="offset" />
          </mxGeometry>
        </mxCell>
        <mxCell id="q0aHQsbhXJrefQg0nyR3-19" value="&lt;font style=&quot;font-size: 14px&quot;&gt;get_page()&lt;/font&gt;" style="html=1;verticalAlign=bottom;endArrow=block;labelBackgroundColor=none;fontFamily=Verdana;fontSize=12;edgeStyle=elbowEdgeStyle;elbow=vertical;" edge="1" parent="1" source="7baba1c4bc27f4b0-4" target="7baba1c4bc27f4b0-5">
          <mxGeometry x="0.0036" relative="1" as="geometry">
            <mxPoint x="590" y="710" as="sourcePoint" />
            <mxPoint x="710" y="730" as="targetPoint" />
            <mxPoint as="offset" />
            <Array as="points">
              <mxPoint x="650" y="700" />
              <mxPoint x="620" y="700" />
              <mxPoint x="605" y="730" />
            </Array>
          </mxGeometry>
        </mxCell>
        <mxCell id="q0aHQsbhXJrefQg0nyR3-84" value="" style="shape=umlDestroy;whiteSpace=wrap;html=1;strokeWidth=3;fontSize=14;" vertex="1" parent="1">
          <mxGeometry x="55" y="1190" width="30" height="30" as="geometry" />
        </mxCell>
        <mxCell id="q0aHQsbhXJrefQg0nyR3-85" value="" style="shape=umlDestroy;whiteSpace=wrap;html=1;strokeWidth=3;fontSize=14;" vertex="1" parent="1">
          <mxGeometry x="195" y="1190" width="30" height="30" as="geometry" />
        </mxCell>
        <mxCell id="q0aHQsbhXJrefQg0nyR3-86" value="" style="shape=umlDestroy;whiteSpace=wrap;html=1;strokeWidth=3;fontSize=14;" vertex="1" parent="1">
          <mxGeometry x="315" y="1190" width="30" height="30" as="geometry" />
        </mxCell>
        <mxCell id="q0aHQsbhXJrefQg0nyR3-87" value="" style="shape=umlDestroy;whiteSpace=wrap;html=1;strokeWidth=3;fontSize=14;" vertex="1" parent="1">
          <mxGeometry x="435" y="1190" width="30" height="30" as="geometry" />
        </mxCell>
        <mxCell id="q0aHQsbhXJrefQg0nyR3-93" value="" style="shape=umlDestroy;whiteSpace=wrap;html=1;strokeWidth=3;fontSize=14;" vertex="1" parent="1">
          <mxGeometry x="1065" y="1200" width="30" height="30" as="geometry" />
        </mxCell>
        <mxCell id="q0aHQsbhXJrefQg0nyR3-94" value="" style="shape=umlDestroy;whiteSpace=wrap;html=1;strokeWidth=3;fontSize=14;" vertex="1" parent="1">
          <mxGeometry x="1195" y="1190" width="30" height="30" as="geometry" />
        </mxCell>
        <mxCell id="q0aHQsbhXJrefQg0nyR3-95" value="" style="shape=umlDestroy;whiteSpace=wrap;html=1;strokeWidth=3;fontSize=14;" vertex="1" parent="1">
          <mxGeometry x="1325" y="1190" width="30" height="30" as="geometry" />
        </mxCell>
        <mxCell id="q0aHQsbhXJrefQg0nyR3-96" value="" style="shape=umlDestroy;whiteSpace=wrap;html=1;strokeWidth=3;fontSize=14;" vertex="1" parent="1">
          <mxGeometry x="1465" y="1190" width="30" height="30" as="geometry" />
        </mxCell>
      </root>
    </mxGraphModel>
  </diagram>
</mxfile>
